<?xml version="1.0" encoding="UTF-8"?>
<svg version="1.1" xmlns="http://www.w3.org/2000/svg" width="512" height="512">
<path d="M0 0 C9.04328217 7.09221184 12.20439164 17.07633431 13.890625 28.08203125 C14.01769836 28.90002197 14.14477173 29.7180127 14.2756958 30.56079102 C15.88730596 41.24278847 17.06264395 51.98014514 18.29788208 62.71063232 C24.83525949 121.94429338 24.83525949 121.94429338 39.04296875 179.6953125 C39.31173828 180.52337402 39.58050781 181.35143555 39.85742188 182.20458984 C42.08551501 188.63373389 44.68425009 195.08116672 50.48046875 198.9453125 C54.87355875 199.66494248 58.53202133 199.36262937 62.60546875 197.5703125 C90.77056098 171.85435872 101.12938556 113.57941196 112.59960938 78.41235352 C134.82493645 10.34956282 134.82493645 10.34956282 162.60546875 -4.3671875 C172.85162642 -9.39918938 185.68475012 -9.60455061 196.76171875 -7.40234375 C204.38127031 -4.66259759 209.36240857 0.51775716 213.23046875 7.5078125 C219.50763794 21.72636284 218.91812404 36.40903239 218.79296875 51.6328125 C218.78429476 53.98600184 218.77583352 56.33919197 218.76757812 58.69238281 C218.69281048 71.89552882 218.27173645 85.00829357 217.34036255 98.17614746 C213.41012561 155.04157431 208.67834675 232.73106082 248.48046875 278.9453125 C249.75039164 280.3419742 251.02117431 281.73785481 252.29296875 283.1328125 C256.67385839 288.12382604 259.14472495 292.87310604 258.82421875 299.77734375 C257.34363339 309.11512642 252.396887 316.25799881 244.93359375 321.85546875 C232.55654921 330.08935008 219.58576437 334.07463735 204.66015625 331.44921875 C195.0957631 328.86069033 190.13608014 324.41884422 185.10546875 315.9296875 C154.47611513 259.67770153 166.08402258 172.64134684 171.51489258 111.29614258 C172.19463682 103.42715404 172.62836348 95.59540099 172.69140625 87.6953125 C172.7029776 86.90882324 172.71454895 86.12233398 172.72647095 85.31201172 C172.72180133 80.82626542 172.32618899 77.12148758 170.48046875 72.9453125 C167.25742123 71.33378874 163.97533867 71.49457227 160.48046875 71.9453125 C154.03918013 74.97650714 150.95045293 80.28856167 148.36694336 86.71533203 C147.20274313 90.04670308 146.11303379 93.39500932 145.04296875 96.7578125 C144.61785973 98.06236386 144.19163375 99.36655168 143.7644043 100.67041016 C141.78134531 106.7404971 139.8380153 112.82326487 137.89648438 118.90673828 C116.34649209 186.41766101 116.34649209 186.41766101 101.48046875 216.9453125 C100.80036341 218.38261486 100.12067875 219.82011635 99.44140625 221.2578125 C90.04167367 240.88427336 78.86685491 256.54928958 58.27734375 264.96484375 C47.30971861 268.80963971 31.36427903 269.04082509 20.75390625 264.1875 C20.00367188 263.77757812 19.2534375 263.36765625 18.48046875 262.9453125 C17.70960938 262.55601562 16.93875 262.16671875 16.14453125 261.765625 C0.55268773 252.77237737 -6.55096455 232.65626103 -11.08203125 216.2578125 C-21.27912858 177.20466787 -25.90606359 136.71337943 -28.53222656 96.51782227 C-28.93765611 81.64758482 -28.93765611 81.64758482 -35.51953125 68.9453125 C-39.49849509 67.44044797 -42.63189758 67.66126972 -46.64453125 68.9453125 C-57.9070479 76.78010669 -60.98163161 90.50939728 -64.39453125 103.1328125 C-64.73331299 104.3796582 -65.07209473 105.62650391 -65.42114258 106.91113281 C-72.29254533 132.55819717 -77.13846525 158.61980171 -80.51953125 184.9453125 C-80.65230469 185.9677002 -80.78507812 186.99008789 -80.921875 188.04345703 C-84.34378155 216.02907762 -84.16574135 245.89383038 -81.24243164 273.91381836 C-80.47174957 281.46706878 -80.2594217 288.9792384 -80.20703125 296.5703125 C-80.18962891 297.71669189 -80.17222656 298.86307129 -80.15429688 300.04418945 C-80.15868766 307.35649366 -80.8444025 311.98859125 -85.89453125 317.5703125 C-96.88632077 327.51526492 -109.73302547 332.26064983 -124.51953125 332.3828125 C-125.2252124 332.39280273 -125.93089355 332.40279297 -126.65795898 332.41308594 C-131.34529291 332.33489855 -134.69555586 331.68836303 -138.51953125 328.9453125 C-144.05039594 322.49227411 -143.13912588 313.81123439 -143.01953125 305.8203125 C-143.01332764 305.08090424 -143.00712402 304.34149597 -143.00073242 303.5796814 C-142.41966572 243.5358561 -128.37603397 182.60823845 -112.51953125 124.9453125 C-112.18018555 123.70555664 -111.84083984 122.46580078 -111.49121094 121.18847656 C-107.02390739 105.09323509 -101.66837448 89.38417935 -95.95703125 73.6953125 C-95.64755554 72.84153015 -95.33807983 71.9877478 -95.01922607 71.10809326 C-87.00714105 49.09040528 -78.4545094 26.53587279 -62.51953125 8.9453125 C-61.95878906 8.29175781 -61.39804688 7.63820313 -60.8203125 6.96484375 C-44.86346524 -10.53746087 -19.22982273 -12.96453493 0 0 Z " fill="#000000" transform="translate(198.51953125,94.0546875)"/>
</svg>
